<svg width="485" height="472" viewBox="0 0 485 472" fill="none" xmlns="http://www.w3.org/2000/svg">
<path d="M484.783 206.932C484.783 212.116 482.756 216.891 478.711 221.262C474.658 225.634 470.696 227.82 466.81 227.82C462.924 227.82 458.552 225.961 453.695 222.233C450.157 219.526 447.75 216.766 446.581 213.589C445.845 211.59 446.12 209.355 447.194 207.515C449.691 203.238 454.666 194.542 454.666 192.846C454.666 184.102 445.269 179.73 426.492 179.73C399.029 179.73 381.718 189.082 374.569 207.771C374.54 207.847 374.574 207.935 374.646 207.972C390.104 216.063 397.833 226.887 397.833 240.449C397.833 246.931 395.404 252.434 390.546 256.965C385.689 261.505 379.693 263.765 372.573 263.765C365.772 263.765 359.374 261.177 353.386 255.993C347.39 250.817 344.4 244.662 344.4 237.535C344.4 234.947 344.802 231.144 345.614 226.119C346.412 221.142 346.821 217.517 346.827 215.244C346.827 215.212 346.801 215.192 346.77 215.194C332.224 216.179 320.502 222.492 311.611 234.134C302.7 245.793 298.253 261.018 298.253 279.795C298.253 288.865 299.71 293.397 302.624 293.397C303.596 293.397 305.539 292.911 308.453 291.939C311.368 290.967 313.63 290.482 315.254 290.482C322.055 290.482 328.37 293.48 334.199 299.469C340.028 305.465 342.942 312.182 342.942 319.628C342.942 332.758 336.133 339.866 322.528 340.964C322.247 340.987 321.968 340.948 321.706 340.843C319.899 340.122 312.42 337.114 311.853 337.114C311.527 337.114 310.799 337.442 309.668 338.086C308.529 338.74 307.641 339.058 306.996 339.058C303.141 339.058 299.121 335.875 294.951 329.494C294.899 329.414 294.781 329.381 294.696 329.427C289.29 332.35 286.595 337.179 286.595 343.916C286.595 351.368 288.371 356.386 291.938 358.974C292.583 359.626 297.767 362.055 307.482 366.26C313.74 368.942 323.829 388.134 325.001 390.394C325.076 390.539 325.098 390.693 325.063 390.852C324.808 392.024 323.536 397.074 320.613 396.905C317.542 396.728 314.376 395.013 311.125 391.762C308.043 388.68 306.025 387.147 305.054 387.147C301.167 387.147 297.6 391.353 294.367 399.777C287.567 416.935 283.356 427.136 281.738 430.378L281.737 430.38C277.525 437.499 272.022 441.066 265.222 441.066C261.654 441.066 257.852 440.338 253.806 438.881C249.753 437.423 247.568 436.694 247.249 436.694C244.657 436.694 243.367 440.401 243.363 447.83C243.363 447.855 243.368 447.882 243.377 447.905C245.956 454.683 247.249 458.715 247.249 460.01C247.249 462.272 246.194 464.702 244.091 467.298C241.981 469.886 240.121 471.184 238.505 471.184C236.235 471.184 234.05 469.969 231.947 467.539C229.837 465.111 228.79 462.598 228.79 460.01C228.79 460.329 230.724 453.242 234.593 438.734C234.609 438.675 234.596 438.61 234.557 438.564L232.245 435.79C232.211 435.75 232.154 435.735 232.104 435.751C225.346 437.995 220.351 439.123 217.132 439.123C205.147 439.123 196.89 432.156 192.359 418.236C192.032 417.583 190.416 410.137 187.501 395.891C186.203 390.063 183.774 387.147 180.214 387.147C177.618 387.147 174.947 389.091 172.199 392.977C169.444 396.863 167.418 398.805 166.127 398.805C164.837 398.805 162.912 396.888 160.347 393.05C160.317 393.005 160.3 392.946 160.302 392.893C160.633 384.836 162.9 378.558 167.097 374.035L167.103 374.029C170.663 370.796 176.818 367.397 185.558 363.831C190.734 361.888 193.649 360.757 194.302 360.431C196.555 359.145 197.852 357.369 198.183 355.111C198.186 355.092 198.185 355.072 198.182 355.053C194.959 337.366 191.258 328.468 187.083 328.373C187.038 328.372 186.992 328.389 186.958 328.418C175.328 338.102 166.604 342.944 160.785 342.944C153.331 342.944 147.183 340.439 142.326 335.415C137.468 330.397 135.039 323.999 135.039 316.227C135.039 301.009 144.914 293.397 164.671 293.397C167.586 293.397 170.743 294.367 174.143 296.311C177.543 298.254 179.562 299.225 180.215 299.225C183.448 299.225 185.072 295.181 185.072 287.081C185.072 272.19 179.076 257.132 167.1 241.906C155.115 226.688 141.999 219.076 127.753 219.076C124.536 219.076 122.119 220.834 120.503 224.344C120.481 224.392 120.479 224.452 120.497 224.502C123.395 232.31 125.64 237.367 126.451 239.138C126.671 239.618 126.779 240.131 126.753 240.657C126.457 246.726 123.872 252.648 119.01 258.422C113.826 264.578 108.323 267.651 102.494 267.651C95.6935 267.651 89.4544 264.737 83.7923 258.908C78.1224 253.079 75.2913 246.604 75.2913 239.478C75.2913 230.734 79.1773 223.13 86.9494 216.648C94.7215 210.173 98.6077 206.613 98.6077 205.96C98.6077 202.401 92.9384 197.3 81.6064 190.659C70.2672 184.026 60.8781 180.701 53.4328 180.701C34.9736 180.701 25.7445 185.559 25.7445 195.273C25.7445 196.898 25.9874 199.327 26.4734 202.56C26.9593 205.801 27.2016 208.389 27.2016 210.332C27.2016 216.814 24.2874 220.047 18.4583 220.047C13.2744 220.047 8.90246 217.785 5.34318 213.247C1.77612 208.715 0 203.046 0 196.245C0 187.065 4.81198 179.041 14.4461 172.162C19.6615 168.437 25.6323 165.774 31.9642 164.785C55.5119 161.107 84.3602 174.346 118.51 204.491L118.54 204.526C120.156 207.107 122.579 208.389 125.81 208.389L129.688 207.904L129.704 207.903H136.982C149.612 207.903 162.402 215.842 175.357 231.706C190.249 249.846 197.702 270.566 197.702 293.883C197.702 297.123 196.973 301.169 195.516 306.025C194.059 310.883 193.33 313.797 193.33 314.769C193.33 315.095 196.321 319.467 202.317 327.885C208.306 336.31 211.304 343.915 211.304 350.716C211.304 353.311 210.977 356.143 210.332 359.216C209.679 362.297 209.361 364.157 209.361 364.802C209.361 369.341 212.275 371.602 218.104 371.602C224.578 371.602 227.819 363.671 227.819 347.801C227.819 347.157 227.978 346.032 228.302 344.415L228.305 344.388V339.543C228.305 327.565 226.195 318.337 221.99 311.855C219.721 308.621 215.508 305.221 209.361 301.654C205.148 299.066 203.046 296.151 203.046 292.91C203.046 290.648 204.093 288.538 206.203 286.595C208.306 284.652 210.491 283.68 212.761 283.68L223.447 284.166C225.709 284.166 226.848 282.71 226.848 279.794V278.824C223.28 263.28 218.423 250.816 212.275 241.42C207.091 233.003 202.074 228.791 197.216 228.791C196.563 228.791 195.918 228.957 195.273 229.276C194.62 229.603 194.135 229.762 193.816 229.762C192.518 229.762 189.118 226.362 183.615 219.561C176.833 211.493 170.828 202.614 165.661 192.279C165.594 192.144 165.612 191.918 165.696 191.793C167.616 188.932 169.214 187.501 170.5 187.501C173.733 187.501 177.376 188.958 181.429 191.873C185.475 194.787 187.987 196.245 188.958 196.245C189.604 196.245 190.901 195.599 192.844 194.301C194.788 193.011 196.404 192.359 197.702 192.359C200.291 192.359 203.532 194.712 207.418 199.402C211.304 204.1 215.349 207.257 219.561 208.875L220.038 206.01C220.044 205.976 220.04 205.94 220.028 205.908C216.8 196.879 215.19 192.199 215.19 191.873C215.19 191.873 214.051 188.329 215.226 186.899C215.629 186.408 217.133 186.529 217.133 186.529C218.718 186.529 220.772 186.844 223.299 187.465C223.374 187.483 223.453 187.432 223.46 187.355L223.933 182.159V180.215C223.933 176.982 222.962 171.313 221.019 163.214C219.076 155.123 218.104 148.808 218.104 144.269V141.354C218.104 139.412 216.48 136.498 213.247 132.612C209.131 127.236 206.103 122.788 204.155 119.261C204.088 119.14 203.922 119.146 203.843 119.259C198.105 127.518 193.95 131.64 191.387 131.64C189.154 131.64 186.14 129.757 182.34 125.991C182.248 125.9 182.095 125.91 182.025 126.019C178.136 132.042 171.576 136.334 162.35 138.896C162.29 138.913 162.25 138.971 162.26 139.033C162.903 143.209 163.87 147.386 165.157 151.556C166.447 155.769 167.1 158.037 167.1 158.357C167.1 160.935 165.976 162.547 163.745 163.202C163.718 163.209 163.687 163.208 163.662 163.197C158.491 160.925 153.563 155.421 148.884 146.699C144.185 137.955 141.84 130.836 141.84 125.325C141.84 122.092 144.269 118.692 149.127 115.124C156.573 109.948 161.43 106.062 163.7 103.466L161.757 102.494C156.91 104.433 151.255 106.054 144.798 107.343C144.769 107.348 144.737 107.347 144.709 107.34C136.361 105.095 131.046 102.686 128.767 100.112C128.739 100.081 128.73 100.039 128.739 99.9982L129.674 95.7934C129.687 95.735 129.739 95.6937 129.798 95.6937H140.383C142.326 95.6937 145.073 93.7513 148.641 89.8652C153.45 85.0558 157.939 81.362 162.116 78.7708C162.175 78.7346 162.177 78.6503 162.119 78.6132C160.177 77.3745 157.304 76.7492 153.499 76.7492C149.613 76.7492 146.698 75.6189 144.755 73.3491C144.428 72.7033 144.269 72.059 144.269 71.4055C144.269 69.463 145.726 67.5194 148.641 65.577C152.834 62.3522 155.744 59.6041 157.37 57.3386C157.381 57.3232 157.387 57.3064 157.39 57.2878L158.834 48.6197C158.839 48.5915 158.854 48.5646 158.875 48.5454C165.98 42.0906 171.965 38.8606 176.815 38.8606C181.991 38.8606 196.89 44.3706 221.504 55.3767C221.504 55.0571 221.664 54.5711 221.99 53.919V51.9754C221.99 46.7992 220.047 39.5131 216.161 30.1167C212.275 20.7284 210.332 15.0585 210.332 13.1161C210.332 8.25807 212.108 5.82847 215.675 5.82847C218.564 5.82847 223.518 15.8509 230.546 35.8951C230.59 36.0223 230.779 36.0119 230.793 35.8777C231.745 26.999 232.697 18.115 233.648 9.22979C234.293 3.08171 235.751 0 238.02 0C242.877 0 245.306 4.05241 245.306 12.1441C245.306 12.4703 245.139 14.7401 244.82 18.9443C244.168 24.4515 243.683 29.6252 243.363 34.4804V34.4832C243.361 35.3958 243.791 37.0293 244.652 39.3778C244.717 39.5563 244.964 39.6127 245.067 39.4533C248.244 34.5528 251.887 26.4203 255.993 15.0583C258.581 7.61231 261.336 3.88606 264.251 3.88606C266.508 3.88606 267.806 6.95611 268.135 13.0817C268.136 13.1042 268.132 13.1287 268.125 13.1498C260.68 33.8569 256.965 46.3167 256.965 50.5187C256.965 51.8166 257.451 52.4611 258.422 52.4611H258.908C268.942 43.3989 280.281 38.8606 292.91 38.8606C298.413 38.8606 304.083 40.317 309.912 43.2326C315.741 46.1467 318.815 49.547 319.141 53.4331C320.112 60.2333 323.513 66.2293 329.342 71.4057C335.171 76.5896 338.086 81.1214 338.086 85.0075C338.086 90.0873 335.907 92.6744 331.556 92.7763C331.509 92.7773 331.497 92.7268 331.474 92.6863C331.298 92.373 328.642 91.2718 323.513 89.3795V92.7796C323.513 99.2616 328.044 102.494 337.114 102.494C338.086 102.494 342.131 101.524 349.258 99.58L354.601 98.1223C356.863 98.1223 358.001 99.0942 358.001 101.038C358.001 106.864 352.662 111.561 341.984 115.12L341.963 115.126C339.05 115.777 335.813 116.096 332.257 116.096C329.661 116.096 325.775 114.806 320.598 112.21C314.387 109.111 309.52 107.044 305.994 106.022C305.9 105.995 305.859 106.128 305.938 106.186C323.479 119.064 332.256 133.213 332.256 148.641C332.256 150.585 329.987 153.825 325.455 158.357C319.626 163.867 312.34 168.725 303.597 172.929H302.14C300.842 172.929 300.197 172.125 300.197 170.501C300.197 169.855 301.327 167.342 303.597 162.972C305.858 158.6 306.997 154.797 306.997 151.556C306.997 150.912 301.352 145.432 290.069 135.109C290.024 135.067 289.956 135.05 289.897 135.065C287.342 135.701 285.113 136.012 283.195 136.012C278.011 136.012 273.966 130.994 271.051 120.954C267.521 108.778 262.415 100.409 255.718 95.838C255.639 95.7839 255.526 95.8517 255.537 95.9466C256.206 101.702 258.056 107.772 261.093 114.152C264.167 120.634 265.707 124.354 265.707 125.324C265.707 128.24 263.355 132.695 258.664 138.683C253.966 144.679 251.621 149.453 251.621 153.013V156.899C251.621 160.133 249.687 165.457 245.819 172.874C245.8 172.91 245.769 172.941 245.732 172.958C242.199 174.594 239.957 178.144 238.991 183.615C238.664 186.211 238.505 193.817 238.505 206.446V207.418C238.505 208.715 238.664 209.846 238.991 210.818C250.951 198.859 259.853 192.703 265.682 192.362C265.704 192.361 265.726 192.364 265.747 192.37C270.258 193.661 273.485 194.302 275.422 194.302C277.684 194.302 280.682 192.2 284.409 187.987C288.128 183.783 291.452 181.673 294.367 181.673C294.996 181.673 296.246 181.983 298.11 182.598C298.192 182.626 298.258 182.708 298.265 182.794C298.903 190.459 299.224 193.81 299.224 192.845C299.224 201.915 286.913 212.442 262.307 224.419C253.241 228.956 246.283 240.606 241.426 259.371C241.422 259.386 241.42 259.402 241.422 259.418L241.905 263.764C246.437 254.05 250.967 249.192 255.506 249.192C257.107 249.192 258.779 250.178 261.408 252.319C261.866 252.692 261.78 253.61 261.768 253.665C258.858 266.255 255.497 275.61 251.62 283.681C249.005 289.496 247.564 292.568 247.295 292.903L247.248 293.011V300.455C247.248 300.555 247.367 300.609 247.451 300.556C249.921 299.024 251.471 298.253 252.106 298.253C255.015 298.253 257.599 303.26 259.866 313.258C259.873 313.292 259.868 313.329 259.851 313.359C257.266 317.882 254.846 322.397 252.592 326.913C249.351 333.713 247.734 340.681 247.734 347.801C247.734 347.801 250.312 359.443 255.475 361.389C255.498 361.398 255.523 361.401 255.547 361.4C264.267 361.069 269.596 356.53 271.536 347.801C272.826 340.361 274.123 332.921 275.418 325.473L275.427 325.446C276.718 322.534 279.229 319.305 282.952 315.741C286.67 312.181 288.538 309.752 288.538 308.454C288.538 306.511 287.642 302.223 285.866 295.581C284.082 288.947 283.194 283.362 283.194 278.824C283.194 258.748 289.996 240.615 303.597 224.419C316.226 209.527 329.66 202.073 343.914 202.073H347.305C347.312 202.074 347.32 202.074 347.327 202.075C349.265 202.401 350.877 202.559 352.172 202.559C354.74 202.559 356.673 202.403 357.97 202.08C357.994 202.074 358.014 202.062 358.031 202.045C381.656 179.401 405.288 168.07 428.921 168.07C442.523 168.07 455.228 172.283 467.053 180.701C478.871 189.125 484.783 197.87 484.783 206.932ZM113.18 243.364C113.18 237.861 112.208 232.92 110.265 228.549C108.322 224.177 106.212 221.991 103.951 221.991C101.036 221.991 97.8788 223.691 94.4785 227.091C91.0778 230.491 89.3776 233.816 89.3776 237.049C89.3776 241.588 90.8347 245.55 93.7497 248.95C96.6638 252.35 100.065 254.051 103.951 254.051C110.098 254.051 113.18 250.491 113.18 243.364ZM175.82 313.421C175.833 313.357 175.808 313.284 175.758 313.241C170.623 308.757 167.41 306.512 166.127 306.512H160.784C154.333 306.512 150.805 309.833 150.194 316.463C149.403 325.049 155.38 331.626 163.872 330.135C169.793 329.095 173.777 323.527 175.82 313.421ZM227.617 69.4628C227.7 69.463 227.744 69.3632 227.695 69.2969C223.468 63.5783 216.382 60.7198 206.445 60.7198C188.748 60.7198 176.969 70.151 171.101 89.0059C171.064 89.1235 171.199 89.226 171.3 89.1544C177.998 84.3773 184.77 79.7615 191.63 75.2921C198.59 70.7617 205.474 68.4919 212.274 68.4919C213.246 68.4919 215.432 68.6595 218.832 68.9779C222.145 69.2957 225.068 69.4557 227.617 69.4628ZM224.491 88.5221C216.086 90.9352 209.965 99.8945 206.129 115.402C206.098 115.527 206.261 115.617 206.33 115.508C211.678 107.045 217.784 98.1272 224.648 88.7566C224.728 88.6468 224.622 88.4845 224.491 88.5221ZM231.658 417.216C230.891 415.922 215.839 394.904 214.655 395.155C213.314 395.44 213.732 400.964 213.732 403.177C213.732 406.079 213.889 408.335 214.213 409.957L214.229 410.002C219.082 420.02 223.282 425.037 226.847 425.037C228.044 425.037 229.118 424.668 230.069 423.93C231.113 423.119 231.689 421.836 231.695 420.514C231.7 419.285 231.704 417.757 231.704 417.381C231.704 417.32 231.689 417.269 231.658 417.216ZM265.707 410.949C265.707 409.694 265.252 408.29 264.341 406.736C264.294 406.655 264.177 406.628 264.1 406.683C257.699 411.165 252.895 415.013 249.686 418.227L249.671 418.246C248.703 419.86 248.22 421.473 248.22 423.094C248.22 427.626 250.322 429.894 254.535 429.894C256.478 429.894 258.823 427.709 261.578 423.337C264.326 418.965 265.707 414.835 265.707 410.949ZM300.222 76.5714C300.363 76.626 300.507 76.4683 300.427 76.3402C296.893 70.6787 292.287 65.6376 286.595 61.2058C282.056 57.972 278.656 56.3478 276.393 56.3478C268.94 56.3478 260.196 60.7198 250.163 69.4637L256.477 68.9777C257.768 68.9777 259.878 68.4164 262.792 67.2769C265.707 66.1466 267.969 65.5776 269.593 65.5776C271.197 65.5776 281.404 69.2443 300.222 76.5714ZM329.34 316.228C329.34 314.284 327.8 311.78 324.726 308.698C321.644 305.624 318.973 304.083 316.711 304.083C314.115 304.083 311.686 305.381 309.425 307.97C307.155 310.565 306.025 313.48 306.025 316.714C306.025 319.309 307.315 321.897 309.911 324.486C312.499 327.082 315.087 328.372 317.683 328.372C320.271 328.372 322.859 326.997 325.455 324.243C328.044 321.495 329.34 318.823 329.34 316.228ZM383.259 237.535C383.259 233.004 381.316 228.792 377.43 224.906C373.544 221.02 369.977 219.076 366.744 219.076C365.12 219.076 363.101 220.777 360.672 224.177C358.243 227.577 357.029 230.575 357.029 233.163C357.029 241.589 358.813 250.07 365.287 251.137C370.847 252.053 383.259 246.605 383.259 237.535Z" fill="#8B3A43"/>
</svg>
